<svg width="22" height="22" viewBox="0 0 22 22" fill="none" xmlns="http://www.w3.org/2000/svg">
<path fill-rule="evenodd" clip-rule="evenodd" d="M11 20.6296C5.6817 20.6296 1.37037 16.3183 1.37037 11C1.37037 5.6817 5.6817 1.37037 11 1.37037C16.3183 1.37037 20.6296 5.6817 20.6296 11C20.6296 16.3183 16.3183 20.6296 11 20.6296ZM1 11C1 16.5228 5.47715 21 11 21C16.5228 21 21 16.5228 21 11C21 5.47715 16.5228 1 11 1C5.47715 1 1 5.47715 1 11ZM10.5 11C10.7761 11 11 11.2239 11 11.5V16.037C11 16.1393 11.0829 16.2222 11.1852 16.2222V16.2222C11.2875 16.2222 11.3704 16.1393 11.3704 16.037V11.5C11.3704 11.2239 11.5942 11 11.8704 11H16.037C16.1393 11 16.2222 10.9171 16.2222 10.8148V10.8148C16.2222 10.7125 16.1393 10.6296 16.037 10.6296H11.8704C11.5942 10.6296 11.3704 10.4058 11.3704 10.1296V5.96296C11.3704 5.86069 11.2875 5.77778 11.1852 5.77778V5.77778C11.0829 5.77778 11 5.86069 11 5.96296V10.1296C11 10.4058 10.7761 10.6296 10.5 10.6296H5.96296C5.86069 10.6296 5.77778 10.7125 5.77778 10.8148V10.8148C5.77778 10.9171 5.86069 11 5.96296 11H10.5Z" stroke="#6E6E6E"/>
</svg>
