<svg width="51" height="31" viewBox="0 0 51 31" fill="none" xmlns="http://www.w3.org/2000/svg">
<path fill-rule="evenodd" clip-rule="evenodd" d="M50.2315 13.8461H20.8552C20.4325 13.8461 20.0867 13.2566 20.0867 12.5348C20.0867 11.8143 20.4325 11.2248 20.8552 11.2248H50.2315C50.6542 11.2248 51 11.8143 51 12.5348C51 13.2566 50.6542 13.8461 50.2315 13.8461" fill="#5C92FF"/>
<path fill-rule="evenodd" clip-rule="evenodd" d="M43.1063 19.9624H20.8458C20.4283 19.9624 20.0867 19.3729 20.0867 18.6512C20.0867 17.9306 20.4283 17.3411 20.8458 17.3411H43.1063C43.5238 17.3411 43.8661 17.9306 43.8661 18.6512C43.8661 19.3729 43.5238 19.9624 43.1063 19.9624" fill="#5C92FF"/>
<path fill-rule="evenodd" clip-rule="evenodd" d="M9.99426 9.27964C10.7058 9.27964 11.4152 9.36098 12.1089 9.52032C14.3268 4.04037 19.5026 0.384476 25.1022 0.384476C32.09 0.384476 37.9015 5.63711 39.0579 12.9311C39.0747 12.9311 39.0905 12.9311 39.1074 12.9311C43.676 12.9311 47.394 16.8979 47.394 21.7739C47.394 26.6499 43.676 30.6155 39.1074 30.6155H9.99426C4.48324 30.6155 -9.17548e-06 25.8298 -9.17548e-06 19.9476C-9.17548e-06 14.0654 4.48324 9.27964 9.99426 9.27964V9.27964ZM2.01024 19.9476C2.01024 24.652 5.59114 28.4784 9.99427 28.4784H39.1074C42.5681 28.4784 45.3837 25.471 45.3837 21.7739C45.3837 18.0767 42.5681 15.0682 39.1074 15.0682C38.8766 15.0682 38.6236 15.0872 38.3126 15.1284L37.2911 15.2632L37.1889 14.1746C36.5585 7.53136 31.3616 2.52164 25.1022 2.52164C19.9812 2.52164 15.3851 5.99145 13.6648 11.1561L13.339 12.131L12.4135 11.8168C11.6271 11.5516 10.8133 11.4168 9.99427 11.4168C5.59114 11.4168 2.01024 15.2432 2.01024 19.9476V19.9476Z" fill="#5C92FF"/>
<path fill-rule="evenodd" clip-rule="evenodd" d="M35.963 25.205H20.8553C20.4326 25.205 20.0867 24.6152 20.0867 23.8943C20.0867 23.1735 20.4326 22.5837 20.8553 22.5837H35.963C36.3865 22.5837 36.7323 23.1735 36.7323 23.8943C36.7323 24.6152 36.3865 25.205 35.963 25.205" fill="#5C92FF"/>
</svg>
