<svg width="31" height="32" viewBox="0 0 31 32" fill="none" xmlns="http://www.w3.org/2000/svg">
<path fill-rule="evenodd" clip-rule="evenodd" d="M16.0314 31.4138C20.9053 31.9143 25.0287 30.3768 28.447 26.9588C29.2623 26.1434 29.9762 25.2278 30.7211 24.3451C31.0499 23.9543 31.0721 23.6645 30.8708 23.3598C30.6711 23.059 30.3376 22.9878 29.8606 23.1052C26.493 23.9323 23.1572 23.8767 19.9877 22.4035C14.8667 20.0224 11.9634 15.9621 11.2464 10.4356C10.8272 7.20166 11.6568 4.19247 13.3422 1.40572C13.3952 1.31878 13.4475 1.23184 13.5022 1.14569C13.6924 0.844927 13.6979 0.543382 13.4681 0.2669C13.2368 -0.0103651 12.9262 -0.0597088 12.5989 0.0640422C7.71401 1.90699 3.89799 4.95613 2.09298 9.91557C-0.170799 16.1352 1.0843 21.7408 5.74974 26.5107C8.04046 28.8534 10.8708 30.3227 14.0783 31.0676C14.7217 31.2172 15.3801 31.3002 16.0314 31.4138V31.4138ZM28.4494 24.884C28.153 25.2067 27.8939 25.5019 27.6205 25.7831C25.7648 27.6966 23.6191 29.1636 20.9592 29.7095C16.4118 30.6423 12.217 29.7236 8.46279 27.0559C3.0874 23.2368 1.3022 16.8997 3.21735 10.94C4.5192 6.89072 7.32179 4.12198 11.1053 2.24849C11.1378 2.23282 11.179 2.2336 11.2131 2.22734C8.82569 8.02092 9.23931 13.5592 13.0157 18.5883C16.8159 23.6496 22.1065 25.5442 28.4494 24.884V24.884Z" fill="#5C92FF"/>
</svg>
