<svg width="17" height="17" viewBox="0 0 17 17" fill="none" xmlns="http://www.w3.org/2000/svg">
<path d="M10.5806 9.05814C10.9315 8.3879 11.0528 7.02154 11.0528 6.21255C11.0528 3.53937 8.88574 1.37233 6.21256 1.37233C3.53937 1.37233 1.37233 3.53937 1.37233 6.21255C1.37233 8.88574 3.53937 11.0528 6.21256 11.0528C7.02154 11.0528 8.38789 10.9315 9.05813 10.5806M10.5806 9.05814C10.6504 8.9512 10.7164 8.84154 10.7784 8.72936C11.1905 7.98322 11.4251 7.12528 11.4251 6.21255C11.4251 3.33374 9.09137 1 6.21256 1C3.33374 1 1 3.33374 1 6.21255C1 9.09137 3.33374 11.4251 6.21256 11.4251C7.12528 11.4251 7.98321 11.1905 8.72935 10.7784C8.84154 10.7164 8.9512 10.6504 9.05813 10.5806M10.5806 9.05814L16 14.4775L14.4775 16L9.05813 10.5806M14.4775 15.4735L9.63238 10.6283C10.0047 10.3395 10.3395 10.0047 10.6283 9.63238L15.4735 14.4775L14.4775 15.4735Z" stroke="#5C92FF" stroke-linecap="round"/>
</svg>
