<svg width="38" height="37" viewBox="0 0 38 37" fill="none" xmlns="http://www.w3.org/2000/svg">
<path fill-rule="evenodd" clip-rule="evenodd" d="M31.2414 30.9907L25.7996 25.9747C25.4619 25.6638 25.4449 25.1374 25.7633 24.806C26.0816 24.4753 26.6192 24.4595 26.9577 24.7713L32.3996 29.7864C32.7373 30.0981 32.7534 30.6237 32.435 30.9552C32.1175 31.2866 31.5799 31.3024 31.2414 30.9907" fill="#5C92FF"/>
<path fill-rule="evenodd" clip-rule="evenodd" d="M10.4509 11.9528L5.00904 6.93764C4.67054 6.62591 4.65442 6.10033 4.97277 5.76888C5.29113 5.43743 5.8279 5.42164 6.1664 5.73336L11.6082 10.7493C11.9467 11.061 11.9629 11.5866 11.6445 11.9181C11.3261 12.2487 10.7886 12.2645 10.4509 11.9528" fill="#5C92FF"/>
<path fill-rule="evenodd" clip-rule="evenodd" d="M6.10111 30.9284L11.0956 25.4847C11.4059 25.1469 11.9427 25.1185 12.2885 25.4223C12.6342 25.7262 12.6624 26.2517 12.3521 26.5903L7.3576 32.034C7.04731 32.3717 6.51054 32.4002 6.16559 32.0963C5.81983 31.7925 5.79082 31.2669 6.10111 30.9284" fill="#5C92FF"/>
<path fill-rule="evenodd" clip-rule="evenodd" d="M25.0557 10.1338L30.0502 4.69009C30.3605 4.35232 30.8972 4.32391 31.243 4.62774C31.588 4.93157 31.617 5.45716 31.3067 5.79571L26.3121 11.2394C26.0019 11.5772 25.4651 11.6056 25.1193 11.3017C24.7744 10.9979 24.7454 10.4723 25.0557 10.1338" fill="#5C92FF"/>
<path fill-rule="evenodd" clip-rule="evenodd" d="M18.2211 36.0224L18.1357 28.7053C18.1309 28.2507 18.5065 27.8743 18.9707 27.8695C19.4349 27.864 19.8194 28.2318 19.825 28.6863L19.9104 36.0035C19.9153 36.4588 19.5397 36.8345 19.0755 36.84C18.6112 36.8455 18.2268 36.4778 18.2211 36.0224" fill="#5C92FF"/>
<path fill-rule="evenodd" clip-rule="evenodd" d="M17.8036 8.15375L17.7182 0.83658C17.7126 0.38123 18.0881 0.00558561 18.5524 6.14311e-05C19.0166 -0.00546275 19.401 0.36229 19.4067 0.81764L19.4921 8.13481C19.4978 8.58937 19.1214 8.9658 18.6571 8.97054C18.1929 8.97606 17.8085 8.60831 17.8036 8.15375" fill="#5C92FF"/>
<path fill-rule="evenodd" clip-rule="evenodd" d="M0.847068 17.5819L8.32073 17.6056C8.78496 17.6072 9.16376 17.9805 9.16215 18.435C9.16134 18.8896 8.78012 19.2605 8.31508 19.2589L0.842232 19.236C0.377194 19.2345 -0.00160679 18.8612 5.12542e-06 18.4066C0.00161704 17.9513 0.382836 17.5804 0.847068 17.5819" fill="#5C92FF"/>
<path fill-rule="evenodd" clip-rule="evenodd" d="M29.3127 17.5812L36.7864 17.604C37.2506 17.6056 37.6294 17.9789 37.6278 18.4335C37.6262 18.8888 37.245 19.2597 36.7808 19.2581L29.3071 19.2345C28.8429 19.2329 28.4641 18.8596 28.4657 18.405C28.4673 17.9505 28.8485 17.5796 29.3127 17.5812" fill="#5C92FF"/>
<path fill-rule="evenodd" clip-rule="evenodd" d="M18.6048 10.7533C14.2881 10.7533 10.7757 14.1925 10.7757 18.4192C10.7757 22.6468 14.2881 26.086 18.6048 26.086C22.9223 26.086 26.4347 22.6468 26.4347 18.4192C26.4347 14.1925 22.9223 10.7533 18.6048 10.7533V10.7533ZM24.8348 18.4192C24.8348 21.7827 22.0398 24.5195 18.6048 24.5195C15.1698 24.5195 12.3755 21.7827 12.3755 18.4192C12.3755 15.0558 15.1698 12.319 18.6048 12.319C22.0398 12.319 24.8348 15.0558 24.8348 18.4192V18.4192Z" fill="#12528c"/>
</svg>
