<svg width="29" height="31" viewBox="0 0 29 31" fill="none" xmlns="http://www.w3.org/2000/svg">
<path d="M11.5879 6.23749C11.8686 5.94539 12.2147 5.72955 12.5955 5.60917C12.9763 5.48879 13.3799 5.4676 13.7705 5.54748C14.1611 5.62736 14.5266 5.80584 14.8344 6.06705C15.1423 6.32826 15.3829 6.6641 15.5351 7.04473C15.6872 7.42536 15.7461 7.83898 15.7065 8.24882C15.6668 8.65866 15.5299 9.05203 15.3079 9.39394C15.0859 9.73586 14.7857 10.0157 14.434 10.2087C14.0822 10.4017 13.6898 10.5017 13.2917 10.5H2.41666M15.2129 24.7625C15.4936 25.0546 15.8397 25.2704 16.2205 25.3908C16.6013 25.5112 17.0049 25.5324 17.3955 25.4525C17.7861 25.3726 18.1516 25.1941 18.4594 24.9329C18.7673 24.6717 19.0079 24.3359 19.1601 23.9553C19.3122 23.5746 19.3711 23.161 19.3315 22.7512C19.2918 22.3413 19.1549 21.948 18.9329 21.606C18.7109 21.2641 18.4107 20.9842 18.059 20.7913C17.7072 20.5983 17.3148 20.4983 16.9167 20.5H2.41666M21.4237 10.1625C21.7752 9.79985 22.2076 9.53239 22.6827 9.38376C23.1579 9.23513 23.6611 9.20992 24.1479 9.31035C24.6347 9.41078 25.0901 9.63377 25.4738 9.95958C25.8574 10.2854 26.1576 10.704 26.3477 11.1784C26.5377 11.6527 26.6119 12.1682 26.5636 12.6793C26.5152 13.1904 26.3459 13.6812 26.0705 14.1085C25.7952 14.5357 25.4223 14.8862 24.9848 15.1289C24.5474 15.3716 24.0589 15.4991 23.5625 15.5H2.41666" stroke="#4F4F4F" stroke-width="2" stroke-linecap="round" stroke-linejoin="round"/>
</svg>
